<?xml version="1.0" encoding="UTF-8"?>
<svg width="42px" height="36px" viewBox="0 0 42 36" version="1.1" xmlns="http://www.w3.org/2000/svg" xmlns:xlink="http://www.w3.org/1999/xlink">
    <!-- Generator: Sketch 52.2 (67145) - http://www.bohemiancoding.com/sketch -->
    <title>分组</title>
    <desc>Created with Sketch.</desc>
    <g id="组件" stroke="none" stroke-width="1" fill="none" fill-rule="evenodd">
        <g id="图标/44/暂无数据" transform="translate(-1.000000, -1.000000)">
            <g id="分组" transform="translate(22.000000, 19.500000) rotate(90.000000) translate(-22.000000, -19.500000) translate(3.500000, -1.500000)">
                <g id="zanwushuju" transform="translate(18.281405, 20.718611) rotate(-90.000000) translate(-18.281405, -20.718611) translate(-2.218595, 2.718611)">
                    <path d="M41,29.9600104 C41,28.6664625 39.8184438,27.5978795 38.2824207,27.4291559 C38.2233429,26.4730553 37.2190202,25.6856783 36.037464,25.6856783 C34.79683,25.6856783 33.7334294,26.5292965 33.7334294,27.4853971 C33.7334294,28.1040504 34.1469741,28.6664625 34.7377522,29.0039098 L34.7377522,29.060151 C31.074928,28.3290152 25.8760807,27.8790855 20.0864553,27.8790855 C16.0691643,27.8790855 12.2881844,28.1040504 9.15706054,28.4977389 C9.03890493,27.1479498 7.6210375,26.0793668 5.90778099,26.0793668 C4.2536023,26.0793668 2.89481269,27.0917086 2.71757926,28.3290153 C1.89048994,28.6102213 1.35878965,29.2288747 1.35878965,30.0162516 L1.35878965,30.2974577 C0.472622501,30.7473874 0,31.1973171 0,31.6472468 C0,33.7281716 8.97982708,35.415408 20.0864553,35.415408 C31.074928,35.415408 40.054755,33.7844129 40.1729107,31.703488 C40.704611,31.1973171 41,30.5786638 41,29.9600104" id="路径" fill="#F0EFEE"></path>
                    <path d="M38.0714286,30.5505431 C38.0714286,31.6451377 30.615597,32.4964891 21.4761905,32.4964891 C12.2766563,32.4964891 4.88095238,31.6451377 4.88095238,30.5505431 C4.88095238,29.4559485 12.336784,28.6045972 21.4761905,28.6045972 C30.615597,28.6045972 38.0714286,29.4559485 38.0714286,30.5505431" id="路径" fill="#DFDFDF"></path>
                    <path d="M28.168703,25.6856783 L27.2077549,25.6856783 L27.2077549,25.4507347 L28.2888216,25.4507347 L28.2888216,25.6856783 L28.168703,25.6856783 Z M28.5290586,25.6856783 L28.5290586,25.4507347 C28.8894142,25.4507347 29.2497697,25.4507347 29.6101253,25.3919988 L29.6101253,25.6269424 C29.2497697,25.6856783 28.8894142,25.6856783 28.5290586,25.6856783 Z M26.9675178,25.6856783 C26.6071623,25.6856783 26.2468067,25.6856783 25.8864512,25.6269424 L25.8864512,25.3919988 C26.2468067,25.3919988 26.6071623,25.4507347 26.9675178,25.4507347 L26.9675178,25.6856783 Z M29.8503623,25.6856783 L29.8503623,25.4507347 C30.2107179,25.4507347 30.5710735,25.3919988 30.931429,25.3919988 L30.931429,25.6269424 C30.6311327,25.6269424 30.2707772,25.6269424 29.8503623,25.6856783 Z M25.5861549,25.6269424 C25.2257993,25.6269424 24.8654437,25.5682065 24.5050882,25.5682065 L24.5050882,25.3332629 C24.8654437,25.3332629 25.2257993,25.3919988 25.5861549,25.3919988 L25.5861549,25.6269424 Z M31.2317253,25.5682065 L31.1716661,25.3332629 C31.5320216,25.274527 31.8923772,25.2157911 32.1926735,25.1570552 L32.2527328,25.3919988 C31.9524365,25.4507347 31.5920809,25.5094706 31.2317253,25.5682065 Z M24.2648511,25.5094706 C23.9044956,25.4507347 23.54414,25.4507347 23.1837844,25.3919988 L23.1837844,25.1570552 C23.54414,25.2157911 23.9044956,25.2157911 24.2648511,25.274527 L24.2648511,25.5094706 Z M22.9435474,25.3919988 C22.5831918,25.3332629 22.2228363,25.3332629 21.8624807,25.274527 L21.92254,25.0395834 C22.2828955,25.0983193 22.6432511,25.0983193 23.0036067,25.1570552 L22.9435474,25.3919988 Z M32.553029,25.3332629 L32.4929698,25.0983193 C32.8533253,25.0395834 33.1536216,24.9221116 33.5139772,24.8633757 L33.5740365,25.0983193 C33.2737402,25.1570552 32.9133846,25.274527 32.553029,25.3332629 Z M21.6222437,25.274527 C21.2618881,25.2157911 20.9015326,25.1570552 20.541177,25.1570552 L20.6012362,24.9221116 C20.9615918,24.9808475 21.3219474,25.0395834 21.6823029,25.0395834 L21.6222437,25.274527 Z M20.30094,25.0983193 L19.2198733,24.9221116 L19.2799325,24.687168 C19.6402881,24.7459039 20.0006437,24.8046398 20.30094,24.8633757 L20.30094,25.0983193 Z M33.8142735,24.9808475 L33.7542142,24.7459039 C34.0545105,24.6284321 34.4148661,24.5109603 34.7151624,24.3347526 L34.8352809,24.5696962 C34.5349846,24.687168 34.1746291,24.8633757 33.8142735,24.9808475 Z M18.9796362,24.8633757 L17.8985695,24.687168 L17.9586288,24.4522243 C18.3189844,24.5109603 18.6793399,24.5696961 18.9796362,24.628432 L18.9796362,24.8633757 Z M17.7183918,24.687168 C17.3580362,24.628432 16.9976806,24.5696962 16.6973843,24.5109603 L16.7574436,24.2760166 C17.1177992,24.3347526 17.4781547,24.3934884 17.778451,24.4522243 L17.7183918,24.687168 Z M16.3970881,24.3934885 C16.0367325,24.3347526 15.6763769,24.2760167 15.3760806,24.1585448 L15.4361399,23.9236012 C15.7964954,23.9823371 16.156851,24.041073 16.4571473,24.0998089 L16.3970881,24.3934885 Z M35.0154587,24.3934885 L34.8953402,24.1585448 C35.1956365,23.9236012 35.4358735,23.6886577 35.6160513,23.453714 L35.8562884,23.5711858 C35.6160513,23.8648653 35.3758143,24.1585448 35.0154587,24.3934885 Z M15.0757843,24.1585448 C14.7154288,24.0998089 14.3550732,23.9823371 14.0547769,23.9236012 L14.1148361,23.6886577 C14.4751917,23.7473936 14.775488,23.8648654 15.1358436,23.9236012 L15.0757843,24.1585448 Z M13.7544806,23.8648654 C13.394125,23.8061294 13.0337695,23.6886577 12.7334732,23.6299217 L12.7935324,23.3949781 C13.153888,23.453714 13.4541843,23.5711858 13.8145398,23.6299217 L13.7544806,23.8648654 Z M12.4932361,23.5711858 C12.1328805,23.5124499 11.772525,23.3949781 11.4722287,23.3362422 L11.532288,23.1012986 C11.8926435,23.1600345 12.1929398,23.2775063 12.5532954,23.3362422 L12.4932361,23.5711858 Z M35.9163476,23.3362422 L35.6761106,23.2775063 C35.7962291,23.0425627 35.8562884,22.7488832 35.8562884,22.4552037 L35.8562884,22.3377319 L36.0965254,22.3377319 L36.0965254,22.5139396 C36.1565847,22.7488832 36.0965254,23.1012986 35.9163476,23.3362422 Z M11.1719324,23.2187704 C10.8115768,23.1012986 10.4512213,23.0425627 10.150925,22.9250909 L10.2710435,22.6901473 C10.6313991,22.8076191 10.9316954,22.866355 11.2920509,22.9838268 L11.1719324,23.2187704 Z M9.91068794,22.866355 C9.55033238,22.7488832 9.25003609,22.6901473 8.88968049,22.5726755 L8.94973977,22.3377319 C9.31009533,22.4552037 9.61039162,22.5139396 9.97074718,22.6314114 L9.91068794,22.866355 Z M8.64944348,22.5139396 C8.28908792,22.3964678 7.98879163,22.278996 7.62843603,22.2202601 L7.6884953,21.9853165 C7.98879159,22.1027883 8.34914715,22.2202601 8.70950271,22.278996 L8.64944348,22.5139396 Z M7.38819901,22.1027883 C7.02784345,21.9853165 6.72754716,21.8678447 6.36719156,21.7503729 L6.42725084,21.5154293 C6.72754713,21.6329011 7.08790269,21.7503729 7.44825825,21.8678447 L7.38819901,22.1027883 Z M35.8562884,22.0440524 C35.7962291,21.7503729 35.6761106,21.3979575 35.555992,21.104278 L35.7962291,20.9868062 C35.9764069,21.3392216 36.0965254,21.691637 36.0965254,21.9853165 L35.8562884,22.0440524 Z M6.12695455,21.691637 C5.76659898,21.5741652 5.46630269,21.4566934 5.1059471,21.3392216 L5.22606564,21.104278 C5.52636193,21.2217498 5.88671749,21.3392216 6.18701378,21.4566934 L6.12695455,21.691637 Z M4.86571008,21.2217498 C4.56541379,21.104278 4.20505823,20.9280703 3.9047619,20.8105985 L4.02488041,20.5756549 C4.3251767,20.6931267 4.62547303,20.8693344 4.98582859,20.9868062 L4.86571008,21.2217498 Z M35.4358735,20.8693344 L34.8953402,19.9882959 L35.1355773,19.8120882 C35.3758143,20.1057677 35.5559921,20.3994472 35.6761106,20.6931267 L35.4358735,20.8693344 Z M34.7151624,19.8120882 C34.5349846,19.5184087 34.2947476,19.2834651 34.0545106,18.9897855 L34.2346883,18.8135778 C34.4749254,19.1072573 34.7151624,19.3422009 34.8953402,19.6358805 L34.7151624,19.8120882 Z M33.8743328,18.8135778 C33.6340957,18.5786342 33.3938587,18.3436906 33.1536217,18.0500111 L33.3337994,17.8738034 C33.5740365,18.108747 33.8142735,18.4024265 34.0545106,18.6373701 L33.8743328,18.8135778 Z M32.9734439,17.8738034 C32.7332068,17.6388598 32.4929698,17.4039162 32.2527328,17.1102367 L32.4329105,16.934029 C32.6731476,17.1689726 32.9133846,17.4039162 33.1536217,17.6975957 L32.9734439,17.8738034 Z M32.072555,16.934029 C31.8323179,16.6990854 31.5920809,16.4054059 31.3518439,16.1704623 L31.5320216,15.9942546 C31.7722587,16.2291982 32.0124957,16.5228777 32.2527328,16.7578213 L32.072555,16.934029 Z M31.1716661,15.9942546 C30.931429,15.7593109 30.691192,15.4656315 30.450955,15.2306879 L30.6311327,15.0544802 C30.8713698,15.2894238 31.1116068,15.5831033 31.3518439,15.8180469 L31.1716661,15.9942546 Z M30.2707772,14.9957443 C30.0305401,14.7608006 29.7903031,14.4671211 29.550066,14.2321775 L29.7302438,14.0559698 C29.9704809,14.2909134 30.2107179,14.5845929 30.450955,14.8195365 L30.2707772,14.9957443 Z M29.3698883,14.0559698 C29.1296512,13.7622903 28.8894142,13.5273467 28.7092364,13.2336672 L28.8894142,13.0574595 C29.0695919,13.2924031 29.309829,13.5860826 29.550066,13.8797621 L29.3698883,14.0559698 Z M28.5290586,13.0574595 C28.2888215,12.76378 28.1086438,12.5288364 27.8684067,12.2351569 L28.1086438,12.0589492 C28.2888216,12.3526287 28.5290586,12.5875723 28.7692957,12.8812518 L28.5290586,13.0574595 Z M27.7482882,12.0002133 C27.5080512,11.7065338 27.3278734,11.4128543 27.1476956,11.1191748 L27.3879327,11.001703 C27.5681105,11.2953825 27.7482882,11.589062 27.9885253,11.8827415 L27.7482882,12.0002133 Z M27.0275771,10.8842312 L26.4870438,10.0031926 L26.7272808,9.88572084 L27.2678141,10.7667594 L27.0275771,10.8842312 Z M26.306866,9.76824905 C26.1266882,9.47456956 26.0065697,9.12215415 25.8263919,8.82847462 L26.0666289,8.71100283 C26.1867474,9.00468233 26.306866,9.29836185 26.4870438,9.65077723 L26.306866,9.76824905 Z M25.7663327,8.59353101 C25.6462141,8.2411156 25.5260956,7.9474361 25.4660363,7.5950207 L25.7062734,7.53628478 C25.7663327,7.82996428 25.8864512,8.18237968 26.0065697,8.53479513 L25.7663327,8.59353101 Z M25.4660363,7.3013412 C25.4660363,7.1251335 25.4059771,6.89018988 25.4059771,6.71398218 C25.4059771,6.53777447 25.4059771,6.36156677 25.4660363,6.24409498 L25.7062734,6.30283086 C25.7062734,6.47903856 25.6462141,6.59651035 25.6462141,6.77271809 C25.6462141,6.94892579 25.6462141,7.1251335 25.7062734,7.3013412 L25.4660363,7.3013412 Z M25.7663327,6.00915136 L25.5260956,5.95041545 C25.5861549,5.59800004 25.7663327,5.24558463 26.0065697,4.95190514 L26.1867474,5.12811284 C25.9465104,5.36305646 25.8263919,5.71547187 25.7663327,6.00915136 Z M26.306866,4.95190514 L26.1266882,4.77569744 C26.3669253,4.54075382 26.6672216,4.30581024 26.9675178,4.12960253 L27.0876364,4.36454611 C26.7873401,4.48201791 26.547103,4.71696152 26.306866,4.95190514 Z M27.3879327,4.18833841 L27.2678141,3.95339483 C27.5681104,3.77718713 27.928466,3.65971533 28.2888216,3.60097942 L28.3488808,3.89465892 C27.9885253,3.95339483 27.6281697,4.07086662 27.3879327,4.18833841 Z M28.5891179,3.835923 L28.5290586,3.60097942 L29.6101253,3.42477172 L29.6701846,3.6597153 C29.2497697,3.6597153 28.8894142,3.71845121 28.5891179,3.835923 Z M32.7332068,3.60097942 L32.4929698,3.60097942 L32.4929698,3.3660358 L32.7332068,3.3660358 L32.7332068,3.60097942 Z M29.9104216,3.60097942 L29.9104216,3.3660358 C30.2107179,3.30729989 30.5710735,3.30729989 30.931429,3.30729989 L30.931429,3.54224351 C30.5710735,3.54224351 30.2107179,3.60097942 29.9104216,3.60097942 Z M32.2527328,3.60097942 C31.8923772,3.60097942 31.5320216,3.54224351 31.1716661,3.54224351 L31.1716661,3.30729989 L32.2527328,3.30729989 L32.2527328,3.60097942 Z" id="形状" fill="#D9D9D9" fill-rule="nonzero"></path>
                    <polygon id="路径" fill="#FFFFFF" points="15.6190476 25.6856783 22.452381 25.6856783 22.452381 27.6316242 15.6190476 27.6316242"></polygon>
                    <path d="M7.80952381,13.8318526 L7.80952381,13.7222219 L7.80952381,13.8318526 L7.9189072,14.9281602 L7.80952381,13.8318526 Z M8.29629628,14.9829756 L30.2010582,14.9829756 L30.2619048,13.886668 C30.2619048,13.6125911 30.0793651,13.448145 29.8359788,13.3385142 C29.7751323,13.3385142 29.7142857,13.2836988 29.6534391,13.2836988 L17.6058201,13.2836988 L17.6058201,11.8036836 C17.6058201,11.4747913 17.3624338,11.2555298 17.058201,11.145899 C16.9973545,11.0910836 16.8756614,11.0910836 16.8148148,11.0910837 L11.0952381,11.0910837 C10.6693122,11.0910837 10.3650794,11.3651606 10.3650794,11.7488682 L10.3650794,13.2288835 L8.78306876,13.2288835 C8.47883597,13.2288835 8.17460314,13.448145 8.17460317,13.7770372 L8.23544971,14.8733448 L8.29629628,14.8733448 L8.29629628,14.9829756 Z" id="形状" fill="#FDECED" fill-rule="nonzero"></path>
                    <path d="M7.53554582,29.9471267 L7.59770887,29.9471267 L5.91930591,17.2147504 L5.91930591,17.0934896 L5.91930591,17.2147504 L7.65987196,30.3109089 L7.72203504,30.4927999 L7.72203504,30.5534303 C7.72203504,30.6140607 7.72203504,30.6140607 7.78419809,30.674691 C7.84636114,30.7353214 7.84636118,30.8565821 7.90852426,30.9172125 L7.97068731,30.9778428 L8.09501348,31.0991036 L8.15717653,31.1597339 L8.21933961,31.2203643 L8.2815027,31.2809947 C8.2815027,31.2809947 8.34366578,31.2809947 8.34366575,31.341625 C8.34366575,31.341625 8.40582883,31.341625 8.40582883,31.4022554 L8.46799192,31.4628858 C8.530155,31.4628858 8.530155,31.5235161 8.59231805,31.5235161 L29.2926213,31.5235161 C29.3547844,31.5235161 29.3547844,31.5235161 29.4169474,31.4628858 L29.4791105,31.4628858 C29.5412736,31.4628858 29.6034367,31.4022554 29.6034367,31.4022554 L29.6655997,31.341625 C29.6655997,31.341625 29.7277628,31.341625 29.7277628,31.2809947 C29.7277628,31.2809947 29.7899259,31.2809947 29.7899259,31.2203643 L29.852089,31.1597339 L29.914252,31.0991036 L29.9764151,31.0384732 L30.1007413,30.9172125 L30.1629043,30.8565821 L30.1629043,30.7959517 L30.2250674,30.7353214 C30.2250674,30.674691 30.2872305,30.674691 30.2872305,30.6140607 C30.2872305,30.5534303 30.3493936,30.5534303 30.3493935,30.4927999 C30.3493935,30.4321696 30.3493935,30.4321696 30.4115566,30.3715392 L30.4115566,30.2502785 L30.4737197,30.007757 L31.5304919,22.2470705 L32.2142857,17.15412 L32.2142857,16.7903378 L32.2142857,16.5478164 L32.2142857,16.487186 L32.2142857,16.4265556 C32.2142857,16.3659253 32.1521226,16.3052949 32.1521227,16.2446645 L32.1521227,16.1840342 C32.1521227,16.1234038 32.0899596,16.1234038 32.0899596,16.0627734 C32.0899596,16.0021431 32.0277965,16.0021431 32.0277965,15.9415127 L31.9656334,15.8808824 L31.9034704,15.820252 C31.7791442,15.6989913 31.6548181,15.6383609 31.5304919,15.5777306 C31.4683288,15.5777306 31.4061658,15.5171002 31.3440027,15.5171002 L30.6602089,15.5171002 L30.722372,14.3044929 C30.722372,14.0619715 30.5980458,13.81945 30.4115566,13.6375589 C30.3493935,13.6375589 30.3493935,13.5769286 30.2872305,13.5769286 L30.2250674,13.5769286 L30.1629043,13.5162982 L30.1007413,13.5162982 C29.9764151,13.4556678 29.852089,13.4556678 29.7277628,13.4556678 L17.7924528,13.4556678 L17.7924528,12.1824302 C17.7924528,11.5761266 17.2951483,11.0910837 16.6735175,11.0910837 L10.8301887,11.0910837 C10.2085579,11.0910837 9.71125336,11.5761266 9.71125336,12.1824302 L9.71125336,13.5162982 L8.34366575,13.5162982 L8.2815027,13.5162982 L8.21933961,13.5162982 C8.15717653,13.5162982 8.09501348,13.5769286 8.03285039,13.5769286 C7.90852426,13.6375589 7.84636118,13.6981893 7.78419809,13.81945 L7.65987196,13.6981893 L7.65987196,13.7588197 C7.65987196,13.81945 7.65987196,13.81945 7.59770887,13.8800804 L7.59770887,14.1832322 L7.65987196,15.3958395 L6.97607817,15.3958395 C6.78958895,15.4564698 6.60309973,15.5171002 6.47877356,15.6989913 L6.41661051,15.7596216 C6.35444743,15.820252 6.29228438,15.8808824 6.23012129,16.0021431 C6.16795821,16.0627735 6.10579516,16.1840342 6.10579512,16.3052949 L5.85714286,16.487186 L5.85714286,17.0934896 L7.53554582,29.9471267 Z M8.46799192,13.5769286 L10.0842318,13.5769286 L10.0842318,11.9399088 C10.0842318,11.5154962 10.4572102,11.2123444 10.8301887,11.2123444 L16.6735175,11.2123444 C16.7356806,11.2123444 16.8600067,11.2123444 16.9221698,11.2729748 C17.2329851,11.3336051 17.4816375,11.6367569 17.4816375,12.0005391 L17.4816375,13.6375589 L29.7277628,13.6375589 C29.7899259,13.6375589 29.852089,13.6375589 29.914252,13.6981893 C30.1629043,13.7588197 30.3493936,14.0013411 30.3493935,14.3044929 L30.2872305,15.5171002 L7.90852426,15.5171002 L7.90852426,15.4564698 L7.84636118,15.4564698 L7.78419809,14.2438625 C7.84636118,13.81945 8.15717653,13.5769286 8.46799192,13.5769286 Z M6.41661051,16.0627734 C6.60309973,15.8808824 6.85175203,15.7596216 7.1004043,15.7596216 L31.0331874,15.7596216 C31.2818397,15.7596216 31.5304919,15.8808824 31.7169811,16.0627734 C31.9656334,16.3659253 32.0899596,16.7297074 32.0277965,17.15412 L30.2872305,30.3109089 C30.2250674,30.6140607 30.1007413,30.8565821 29.914252,31.0384732 C29.7277628,31.2203643 29.4169475,31.341625 29.1682952,31.341625 L9.08962262,31.341625 C8.77880727,31.341625 8.53015496,31.2203643 8.34366575,31.0384732 C8.15717653,30.8565821 7.97068731,30.6140607 7.97068731,30.3109089 L6.23012129,17.15412 C6.10579516,16.7297074 6.16795821,16.3052949 6.41661051,16.0627734 Z" id="形状" fill="#A9B0B5" fill-rule="nonzero"></path>
                    <path d="M12.0964243,25.5172791 C12.5098288,25.6295452 12.8641756,25.6856783 13.2775801,25.6856783 C14.6359092,25.6856783 15.7580071,25.0682147 15.7580071,24.2823519 C15.7580071,23.7210213 15.2264871,23.2719569 14.399678,23.0474246 C13.9862735,22.9351585 13.6319268,22.8790255 13.2185223,22.8790255 C11.8601932,22.8790255 10.7380952,23.4964891 10.7380952,24.2823519 C10.797153,24.8436825 11.3286731,25.2927469 12.0964243,25.5172791 Z M14.0453313,24.3384849 L13.572869,24.7875494 C13.4547534,24.8436825 13.3366378,24.8436825 13.2185223,24.7875494 C13.1594645,24.7314163 13.1594645,24.5630172 13.2185223,24.5068841 L13.6909846,24.0578196 C13.8091001,24.0016866 13.9272157,24.0016866 14.0453313,24.0578196 C14.1043891,24.1700857 14.1043891,24.2823519 14.0453313,24.3384849 Z M12.2735977,24.7875494 C12.2145399,24.7314163 12.2145399,24.5630172 12.2735977,24.450751 L12.74606,24.0016866 C12.8641756,23.9455535 12.9822912,23.9455535 13.1004067,24.0016866 C13.1594645,24.0578196 13.1594645,24.2262188 13.1004067,24.2823519 L12.5688866,24.7875494 C12.5098288,24.8998155 12.3326555,24.8998155 12.2735977,24.7875494 Z M23.6717506,23.0474246 C23.6126928,23.0474246 23.6126928,23.0474246 23.553635,23.1035577 L23.1992883,23.2719569 C23.1402305,23.3280899 23.0811727,23.3280899 23.0221149,23.384223 L22.9039993,23.4964891 L22.726826,23.6648882 L22.6087104,23.7771544 C22.4905948,23.9455535 22.4905948,24.1139527 22.4905948,24.2823519 L22.4905948,24.394618 C22.4905948,24.5068841 22.5496526,24.6191502 22.6087104,24.7314163 C22.6087104,24.7314163 22.6087104,24.7875494 22.6677682,24.7875494 L22.8449416,24.9559486 L22.9630571,25.0682147 C23.0811727,25.1243477 23.1402305,25.1804808 23.258346,25.2366138 C23.3174038,25.2927469 23.3764616,25.2927469 23.4355194,25.2927469 C23.553635,25.34888 23.6126928,25.34888 23.7308084,25.405013 C24.4985596,25.6295452 25.3253686,25.6295452 26.0931198,25.405013 C26.1521776,25.405013 26.2112354,25.3488799 26.2702932,25.3488799 C26.3884087,25.2927469 26.4474665,25.2927469 26.5655821,25.2366138 C26.6246399,25.1804808 26.6836977,25.1804808 26.7427555,25.1243477 L26.8608711,25.0120816 L27.0380444,24.8436824 L27.15616,24.7314163 C27.2152178,24.6752833 27.2152178,24.6752833 27.2152178,24.6191502 C27.2742756,24.5068841 27.3333333,24.3384849 27.3333333,24.2262188 C27.3333333,24.0578196 27.2742755,23.8894205 27.2152178,23.7210213 C27.2152178,23.6648882 27.15616,23.6648882 27.0971022,23.6087552 L26.9199288,23.440356 L26.8018133,23.3280899 C26.7427555,23.2719568 26.6836977,23.2719568 26.6246399,23.2158238 L26.2702932,23.0474246 C26.2112354,23.0474246 26.2112354,23.0474246 26.1521776,22.9912916 C25.7387731,22.8790255 25.3253686,22.7667593 24.9119641,22.7667594 C24.5576174,22.7667594 24.2623284,22.8228924 23.9079817,22.8790255 C23.8489239,22.9912916 23.7308084,23.0474246 23.6717506,23.0474246 Z M25.207253,24.0016866 C25.2663108,23.9455535 25.3253686,23.9455535 25.3844264,23.9455535 C25.4434842,23.9455535 25.5025419,23.9455535 25.5615997,24.0016866 L26.034062,24.450751 C26.0931198,24.5068841 26.0931198,24.6752833 26.034062,24.7875494 C25.9750042,24.8436825 25.9159465,24.8436825 25.8568887,24.8436824 C25.7978309,24.8436824 25.7387731,24.8436824 25.6797153,24.7875494 L25.207253,24.3384849 C25.0891374,24.2262188 25.0891374,24.1139527 25.207253,24.0016866 Z M24.2032706,24.0016866 C24.2623284,23.9455535 24.3213862,23.9455535 24.380444,23.9455535 C24.4395018,23.9455535 24.4985596,23.9455535 24.5576174,24.0016866 L25.0300796,24.450751 C25.0891374,24.5068841 25.0891374,24.6752833 25.0300796,24.7875494 C24.9710218,24.8436825 24.9119641,24.8436825 24.8529063,24.8436824 C24.7938485,24.8436824 24.7347907,24.8436824 24.6757329,24.7875494 L24.2032706,24.3384849 C24.1442128,24.2262188 24.1442128,24.1139527 24.2032706,24.0016866 Z" id="形状" fill="#F0EFEF" fill-rule="nonzero"></path>
                    <path d="M24.4047619,23.9897323 C24.4047619,24.0522323 24.4047619,24.1147323 24.4657738,24.1772323 L24.953869,24.6772323 C25.014881,24.7397324 25.0758928,24.7397324 25.1369048,24.7397323 C25.2589285,24.7397323 25.3809524,24.6147323 25.3809524,24.4897323 C25.3809524,24.4272323 25.3809524,24.3647324 25.3199405,24.3022323 L24.8318452,23.8022323 C24.7708333,23.7397323 24.7098214,23.7397323 24.6488095,23.7397323 C24.5267857,23.7397323 24.4047619,23.8647323 24.4047619,23.9897323 Z M24.5877976,23.9272323 C24.6488095,23.8647323 24.7098214,23.8647323 24.7708333,23.9272323 L25.2589285,24.4272323 C25.3199405,24.4897323 25.3199405,24.5522323 25.2589285,24.6147323 C25.1979166,24.6772323 25.1369048,24.6772323 25.0758928,24.6147323 L24.5877976,24.1147323 C24.5267857,24.0522323 24.5267857,23.9272323 24.5877976,23.9272323 Z M23.4285714,23.9897323 C23.4285714,24.0522323 23.4285714,24.1147323 23.4895833,24.1772323 L23.9776786,24.6772323 C24.0386905,24.7397324 24.0997024,24.7397324 24.1607143,24.7397323 C24.2827381,24.7397323 24.4047619,24.6147323 24.4047619,24.4897323 C24.4047619,24.4272323 24.4047619,24.3647324 24.34375,24.3022323 L23.8556548,23.8022323 C23.7946429,23.7397323 23.733631,23.7397323 23.6726191,23.7397323 C23.5505953,23.7397323 23.4285714,23.8647323 23.4285714,23.9897323 Z M23.5505953,23.9272323 C23.5505953,23.9272323 23.6116072,23.8647323 23.6726191,23.8647323 C23.7336309,23.8647323 23.733631,23.8647323 23.7946429,23.9272323 L24.2827381,24.4272323 C24.34375,24.4897323 24.34375,24.5522323 24.2827381,24.6147323 C24.2217262,24.6772323 24.1607143,24.6772323 24.0997024,24.6147323 L23.6116071,24.1147323 C23.5505952,24.0522323 23.5505952,23.9272323 23.5505953,23.9272323 Z" id="形状" fill="#FFFFFF" fill-rule="nonzero"></path>
                    <path d="M24.0192077,24.6809088 C24.0848339,24.7593402 24.1504602,24.7593402 24.2160864,24.6809088 C24.2817127,24.6024774 24.2817127,24.5240461 24.2160864,24.4456147 L23.6910764,23.8181637 C23.6910764,23.8181637 23.6254502,23.7397323 23.5598239,23.7397323 C23.4941977,23.7397323 23.4285714,23.8181637 23.4285714,23.8965951 C23.4285714,23.9750264 23.4285714,23.9750264 23.4941977,24.0534578 L24.0192077,24.6809088 Z M25.1348539,24.6809088 C25.2004802,24.7593402 25.2661064,24.7593402 25.3317327,24.6809088 C25.3973589,24.6024774 25.3973589,24.5240461 25.3317327,24.4456147 L24.8067227,23.8181637 C24.7410964,23.7397323 24.6754702,23.7397323 24.6098439,23.8181637 C24.5442177,23.8965951 24.5442177,23.9750264 24.6098439,24.0534578 L25.1348539,24.6809088 Z" id="形状" fill="#A9B0B5" fill-rule="nonzero"></path>
                    <polygon id="路径" fill="#ECF2FA" points="8.83966165 14.0100026 8.73176692 13.1254817 8.73176692 13.0370296 8.73176692 13.1254817 8.83966165 14.0100026"></polygon>
                    <path d="M32.0295394,15.9559485 C32.0295394,16.0170138 32.1411973,16.0170138 32.1411973,16.0780791 C32.1411973,16.0170138 32.0295394,16.0170138 32.0295394,15.9559485 Z M32.2142857,17.1161883 L32.2142857,17.055123 L32.2142857,17.1161883 L31.5984646,21.8182125 L32.2142857,17.1161883 Z M5.85714286,17.1161883 L5.85714286,16.9940578 L5.85714286,17.1161883 L7.51985981,29.9398906 L7.5814419,30.3673474 L7.64302402,30.5505431 L7.64302402,30.3673474 L5.85714286,17.1161883 Z" id="形状" fill="#FFFFFF" fill-rule="nonzero"></path>
                    <path d="M13.3738095,23.7981107 L12.7490476,24.4208134 C12.6709524,24.4986512 12.6709524,24.5764891 12.7490476,24.6543269 C12.8271429,24.7321648 12.9052381,24.7321648 12.9833333,24.6543269 L13.6080952,24.0316242 C13.6861905,23.9537864 13.6861905,23.8759486 13.6080952,23.7981107 C13.6080952,23.7202729 13.4519048,23.7202729 13.3738095,23.7981107 Z" id="路径" fill="#A9B0B5"></path>
                    <path d="M13.5018104,23.7397323 C13.4327607,23.7397323 13.363711,23.7397323 13.2946613,23.8032244 L12.7422635,24.3111609 C12.6732138,24.438145 12.6732138,24.5651292 12.7422635,24.6921133 C12.8113132,24.7556053 13.0184624,24.7556053 13.0875121,24.6921133 L13.6399099,24.1841768 C13.7089596,24.1206847 13.7089596,23.9302085 13.6399099,23.8032244 C13.6399099,23.7397323 13.5708602,23.7397323 13.5018104,23.7397323 Z M13.5708602,23.8667165 C13.6399099,23.9302086 13.6399099,23.9937006 13.5708602,24.0571927 L13.0184624,24.5651292 C12.9494127,24.6286212 12.880363,24.6286212 12.8113132,24.5651292 C12.7422635,24.5016371 12.7422635,24.438145 12.8113132,24.374653 L13.363711,23.8667165 C13.4327607,23.8032244 13.5708602,23.8032244 13.5708602,23.8667165 Z" id="形状" fill="#FFFFFF" fill-rule="nonzero"></path>
                    <path d="M12.397619,23.7981107 L11.7728572,24.4208134 C11.6947619,24.4986512 11.6947619,24.5764891 11.7728572,24.6543269 C11.8509524,24.7321648 11.9290476,24.7321648 12.0071429,24.6543269 L12.6319048,24.0316242 C12.71,23.9537864 12.71,23.8759486 12.6319048,23.7981107 C12.5538095,23.7202729 12.4757143,23.7202729 12.397619,23.7981107 Z" id="路径" fill="#A9B0B5"></path>
                    <path d="M12.1113217,24.6474246 L12.6637194,24.1551169 C12.7327691,24.03204 12.7327691,23.9089631 12.6637194,23.7858862 C12.5946697,23.7243477 12.3875205,23.7243477 12.3184708,23.7858862 L11.766073,24.2781939 C11.6970233,24.4012708 11.6970233,24.5243477 11.766073,24.6474246 C11.9041724,24.7705016 12.0422719,24.7705016 12.1113217,24.6474246 Z M12.5946697,23.9089631 C12.6637194,23.9705016 12.6637194,24.03204 12.5946697,24.0935785 L12.0422719,24.5858862 C11.9732222,24.6474246 11.9041725,24.6474246 11.8351228,24.5858862 C11.766073,24.5243477 11.766073,24.4628093 11.8351228,24.4012708 L12.3875205,23.9089631 C12.4565702,23.8474247 12.5256199,23.8474247 12.5946697,23.9089631 Z" id="形状" fill="#FFFFFF" fill-rule="nonzero"></path>
                    <path d="M28.6856706,4.28027287 C28.4975972,4.28027287 28.3095238,4.1118737 28.3095238,3.94347453 C28.3095238,3.77507536 28.4975972,3.60667619 28.6856706,3.60667619 C28.873744,3.60667619 29.0618174,3.77507536 29.0618174,3.94347453 C29.0618174,4.1118737 28.873744,4.28027287 28.6856706,4.28027287 Z M28.6856706,3.66280923 C28.5602883,3.66280923 28.4349061,3.77507533 28.4349061,3.88734146 C28.4349061,3.9996076 28.5602883,4.1118737 28.6856706,4.1118737 C28.8110529,4.1118737 28.873744,4.05574063 28.9364351,3.99960756 C28.9991262,3.9434745 28.9991262,3.8312084 28.9364351,3.77507536 C28.873744,3.71894229 28.8110529,3.66280926 28.6856706,3.66280923 Z M35.1428571,1.58588618 L33.7009611,3.60667619 L35.1428571,3.60667619 L35.1428571,3.94347453 L33.1367409,3.94347453 L33.1367409,3.71894229 L34.578637,1.64201921 L33.2621232,1.64201921 L33.2621232,1.36135395 L35.1428571,1.36135395 L35.1428571,1.58588618 Z" id="形状" fill="#E09C9C" fill-rule="nonzero"></path>
                    <polygon id="路径" fill="#D38080" points="37.0952381 0.582975568 36.4119048 2.07486745 37.0952381 2.07486745 37.0952381 2.33432692 36.1190476 2.33432692 36.1190476 2.20459716 36.802381 0.712705285 36.1678572 0.712705285 36.1678572 0.388380973 37.0952381 0.388380973"></polygon>
                    <path d="M2.72540489,19.0772206 C2.54701476,18.9005448 2.24969787,18.782761 1.95238095,18.782761 C1.95238095,18.782761 2.36862462,18.782761 2.72540489,18.5471932 C2.90379503,18.3705175 3.08218517,18.0760579 3.08218517,17.7227063 C3.08218517,17.7227063 3.08218517,18.2527336 3.43896545,18.5471932 C3.61735558,18.723869 3.85520911,18.782761 4.21198935,18.782761 C4.21198935,18.782761 3.79574569,18.782761 3.4984288,19.0183287 C3.32003866,19.1950044 3.14164853,19.4894641 3.14164853,19.8428156 C3.02272178,19.9017076 3.08218514,19.4305721 2.72540489,19.0772206 M36.3222142,19.4305721 C36.2627508,19.3716802 36.0843606,19.2538964 35.9059705,19.2538964 C35.9059705,19.2538964 36.1438241,19.2538964 36.3222142,19.1361125 C36.4411409,19.0772206 36.5006043,18.9005448 36.5006043,18.723869 C36.5006043,18.723869 36.5006043,19.0183286 36.6789944,19.1361125 C36.7384578,19.1950044 36.916848,19.2538964 37.0952381,19.2538964 C37.0952381,19.2538964 36.8573846,19.2538964 36.7384578,19.3716802 C36.6195311,19.4305722 36.5600677,19.6072479 36.5600677,19.7839237 C36.5006043,19.8428156 36.5006043,19.6072479 36.3222142,19.4305721 M5.22286682,17.0160032 C5.10394008,16.8982194 4.86608655,16.7804355 4.62823302,16.7804355 C4.62823302,16.7804355 4.98501329,16.7804355 5.22286682,16.6037597 C5.40125696,16.4859759 5.52018371,16.2504082 5.52018371,15.9559485 C5.52018371,15.9559485 5.52018371,16.368192 5.81750059,16.6037597 C5.93642734,16.7215435 6.11481748,16.7804355 6.4121344,16.7804355 C6.4121344,16.7804355 6.11481751,16.7804355 5.81750059,16.9571113 C5.63911045,17.0748951 5.52018371,17.3104628 5.52018371,17.6049225 C5.46072032,17.6638144 5.46072032,17.2515709 5.22286682,17.0160032" id="形状" fill="#E09C9C" fill-rule="nonzero"></path>
                    <path d="M12.4765446,13.2316242 C12.1837352,13.4711253 11.8909257,13.650751 11.5395544,13.7705016 C11.3638688,13.8303768 11.1881831,13.8303768 11.0124975,13.8303768 C9.95838354,13.8303768 9.07995527,13.1118737 8.84570772,12.0939943 C8.61146017,11.0761149 9.07995527,10.0582354 9.95838354,9.57923335 C9.66557413,8.08235184 10.5440024,6.58547037 12.0080495,6.28609405 C12.1837352,6.22621878 12.4179827,6.22621878 12.5936684,6.22621881 C13.3549729,6.22621881 14.0577155,6.5255951 14.5262106,7.06447244 C14.6433343,7.00459717 14.7018962,7.00459717 14.81902,7.00459717 C14.9947056,6.94472189 15.1703913,6.94472189 15.346077,6.94472193 C16.4001909,6.94472193 17.2786192,7.66322505 17.5128667,8.68110445 C17.7471143,9.8187344 17.1614954,10.9563643 16.1073815,11.3156159 L17.5714286,17.9018945 L12.4765446,13.2316242 Z" id="路径" fill="#FFFFFF"></path>
                    <path d="M12.9976187,6.39961993 C13.8269291,6.39961993 14.5924464,6.6886218 15.1027913,7.26662555 C15.2303775,7.20882517 15.2941706,7.20882517 15.4217568,7.15102482 C15.6131362,7.09322443 15.7407224,7.09322443 15.9321017,7.09322443 C16.9527914,7.09322443 17.909688,7.72902854 18.1648604,8.71163493 C18.4200328,9.80984206 17.7183086,10.8502488 16.5700328,11.197051 L18.1010673,17.3238907 L12.7424463,12.9888626 C12.4872739,13.2200641 12.1045153,13.4512656 11.6579635,13.509066 C11.4665842,13.5668664 11.338998,13.5668664 11.1476187,13.5668664 C10.1269289,13.5668664 9.17003233,12.9310623 8.91485992,11.9484559 C8.65968748,10.9658495 9.23382544,10.0410435 10.1269289,9.57864055 L10.1269289,9.52084016 C9.80796341,8.13363117 10.76486,6.74642218 12.2958946,6.45742032 C12.551067,6.39961993 12.7424463,6.39961993 12.9976187,6.39961993 Z M12.9976187,6.22621881 C12.8062394,6.22621881 12.551067,6.22621881 12.3596877,6.2840192 C10.76486,6.63082144 9.74417033,8.07583082 10.0631358,9.52084016 C9.10623924,10.0410435 8.5958944,11.0236499 8.8510668,12.0062563 C9.10623924,13.046663 10.1269289,13.7980679 11.2752049,13.7980679 C11.4665842,13.7980679 11.6579635,13.7980679 11.8493428,13.7402675 C12.2321015,13.6824671 12.551067,13.509066 12.8700325,13.2778645 L18.1010673,17.4972919 L18.547619,17.9018945 L18.3562397,17.3238907 L16.8889983,11.3704522 C18.0372742,10.9658495 18.6752053,9.86764244 18.4200328,8.76943531 C18.1648604,7.72902857 17.1441707,6.97762369 15.9958948,6.97762369 C15.8045155,6.97762369 15.6131362,6.97762369 15.4217568,7.03542408 C15.3579637,7.03542408 15.2303775,7.09322446 15.1665844,7.09322443 C14.5286533,6.51522067 13.763136,6.22621881 12.9976187,6.22621881 Z" id="形状" fill="#A9B0B5" fill-rule="nonzero"></path>
                    <path d="M22.632422,11.8811045 C22.3890048,11.8228924 22.206442,11.6482562 22.0847334,11.47362 C21.5978991,10.8914994 21.6587533,10.0183186 22.3281505,9.49441008 C22.5715677,9.3197739 22.9366935,9.2033498 23.2409649,9.20334977 C23.5452363,9.20334973 23.8495078,9.31977387 24.092925,9.49441008 C24.3971964,9.26156184 24.7623222,9.14513773 25.1883022,9.14513773 C25.7359909,9.14513773 26.2228252,9.37798597 26.5879509,9.78547036 C27.013931,10.2511668 27.0747852,10.8914995 26.8922224,11.415408 L27.013931,11.5318321 C27.5007653,12.1139527 27.439911,12.9871336 26.7705138,13.5110421 C26.5270966,13.6856783 26.1619709,13.8021024 25.8576994,13.8021024 C25.4925737,13.8021024 25.1274479,13.6274662 24.8231765,13.394618 L21.4761905,15.9559485 L22.632422,11.8811045 Z" id="路径" fill="#FFFFFF"></path>
                    <path d="M24.9303766,9.33498611 C25.4756537,9.33498611 26.0209308,9.58811731 26.4298886,9.96781408 C26.9070061,10.4740764 26.9751658,11.1701872 26.7025272,11.7397323 L26.9070061,11.9295807 C27.4522832,12.5624087 27.3159639,13.4483678 26.7025272,13.9546302 C26.4298886,14.1444785 26.0890904,14.2710441 25.7482922,14.2710441 C25.3393344,14.2710441 24.9303766,14.0811957 24.657738,13.8280646 L20.9089578,16.485942 L22.203991,12.2459947 C21.9313524,12.1827119 21.7268735,11.9928635 21.5223946,11.8030151 C20.9771175,11.1701872 21.1134368,10.284228 21.7268735,9.77796569 C21.9995121,9.58811731 22.3403103,9.46155173 22.6811085,9.46155173 C23.0219066,9.46155173 23.3627049,9.58811731 23.6353434,9.77796569 L23.703503,9.77796569 C24.1124609,9.46155173 24.5214187,9.33498611 24.9303766,9.33498611 Z M24.9303766,9.14513773 L24.9303766,9.33498611 L24.9303766,9.14513773 C24.4532591,9.14513773 24.0443012,9.27170331 23.703503,9.5248345 C23.4308645,9.33498611 23.0900663,9.27170331 22.7492681,9.27170334 C22.3403103,9.27170334 21.9995121,9.39826892 21.6587139,9.65140011 C20.9089578,10.2209453 20.7726385,11.23347 21.3860753,11.9295807 C21.5223946,12.1194291 21.7268735,12.2459947 21.9313524,12.3725603 L20.7044789,16.4226592 L20.5,16.9289215 L20.9771175,16.5492247 L24.4532591,13.9546302 C24.7940573,14.2077614 25.1348555,14.3343269 25.611973,14.3343269 C26.0209308,14.3343269 26.361729,14.2077614 26.7025272,13.9546302 C27.0433254,13.701499 27.3159639,13.3218022 27.3159639,12.8788227 C27.3841236,12.4358431 27.2478043,12.0561463 26.9751658,11.6764495 C26.9751658,11.6131667 26.9070061,11.6131667 26.9070061,11.549884 C27.111485,10.917056 26.9751658,10.2209453 26.5662079,9.71468288 C26.1572501,9.39826892 25.611973,9.14513773 24.9303766,9.14513773 Z" id="形状" fill="#A9B0B5" fill-rule="nonzero"></path>
                    <path d="M32.0295394,15.3609008 C32.0295394,15.4238883 32.1411973,15.4238883 32.1411973,15.4868759 C32.0295394,15.4238883 32.0295394,15.3609008 32.0295394,15.3609008 Z M7.95093459,30.0999843 C8.01251671,30.414922 8.13568092,30.6668722 8.32042725,30.8558348 C8.50517358,31.0447974 8.81308411,31.1707725 9.05941256,31.1707725 L28.9504339,31.1707725 C29.2583445,31.1707725 29.5046729,31.0447974 29.6894192,30.8558348 C29.8741656,30.6668722 30.0589119,30.414922 30.0589119,30.0999843 L31.783211,16.4316889 C31.8447931,15.9907762 31.7216289,15.6128509 31.4753004,15.2979133 C31.2905541,15.1089507 31.0442256,14.9829756 30.7978972,14.9829756 L7.21194928,14.9829756 C6.96562083,14.9829756 6.71929241,15.1089506 6.53454605,15.2979133 C6.2882176,15.6128509 6.16505339,15.9907762 6.22663551,16.4316889 L7.95093459,30.0999843 Z M24.8860147,23.1713553 C25.3170895,23.1713553 25.8097463,23.2343429 26.179239,23.4233055 C26.2408211,23.4233055 26.2408211,23.4233055 26.3024032,23.486293 L26.6718959,23.6752556 C26.733478,23.7382432 26.7950601,23.7382432 26.8566422,23.8012307 L26.9798064,23.9272058 L27.1645528,24.1161684 L27.287717,24.2421434 C27.4108812,24.4311061 27.4108812,24.6200687 27.4108812,24.8090313 C27.4108812,24.9979939 27.3492991,25.1239689 27.287717,25.249944 C27.287717,25.3129316 27.2261348,25.3759191 27.2261348,25.3759191 L27.1029706,25.5018942 L26.9182243,25.6908568 L26.7950601,25.8168319 C26.733478,25.8798194 26.6718959,25.8798194 26.6103138,25.9428069 C26.5487317,26.0057945 26.4255674,26.068782 26.3024032,26.068782 C26.2408211,26.068782 26.179239,26.1317696 26.1176569,26.1317695 C25.3170894,26.3837197 24.4549399,26.3837197 23.6543725,26.1317695 C23.5312083,26.068782 23.4696262,26.068782 23.3464619,26.0057945 C23.2848798,26.0057945 23.2232977,25.9428069 23.1617156,25.9428069 C23.0385514,25.8798194 22.9153872,25.8168319 22.8538051,25.7538443 L22.7306409,25.6278693 L22.5458945,25.4389067 C22.5458945,25.4389067 22.5458945,25.3759191 22.4843124,25.3759191 C22.4227303,25.249944 22.3611482,25.1239689 22.3611482,24.9979939 L22.3611482,24.8720188 C22.3611482,24.6830562 22.4227303,24.4940936 22.4843124,24.305131 C22.4843124,24.2421434 22.5458945,24.2421434 22.6074766,24.1791559 L22.792223,23.9901933 L22.9153872,23.8642182 C22.9769693,23.8012307 23.0385514,23.8012307 23.1001335,23.7382432 L23.4696262,23.5492806 C23.5312083,23.5492806 23.5312083,23.5492806 23.5927904,23.486293 C23.7159546,23.4233055 23.7775367,23.4233055 23.9007009,23.4233055 C24.2086115,23.1713553 24.5781041,23.1713553 24.8860147,23.1713553 Z M21.9300734,18.6362527 C22.0532376,18.6362527 22.237984,18.7622278 22.237984,18.8882029 C22.237984,19.4550907 22.6074766,19.8330159 23.0385514,19.958991 C23.1617156,20.0219785 23.3464619,20.0219785 23.4696262,20.0219785 L24.3933578,20.0219785 C24.516522,19.958991 24.7012684,20.0849661 24.7012684,20.2109411 C24.7628505,20.3369162 24.6396862,20.5258788 24.516522,20.5258788 L23.5312083,20.5258788 C23.2848798,20.5258788 23.0385514,20.4628913 22.8538051,20.3999037 C22.1148198,20.2109411 21.683745,19.5810658 21.683745,18.8252153 C21.683745,18.7622278 21.8069092,18.6362527 21.9300734,18.6362527 Z M22.3611482,21.6596545 C22.9153872,21.6596545 23.346462,22.1005672 23.3464619,22.6674551 C23.3464619,23.2343429 22.9153872,23.6752557 22.3611482,23.6752556 C21.8069092,23.6752556 21.3758345,23.2343428 21.3758345,22.6674551 C21.3758345,22.1005672 21.8069092,21.6596545 22.3611482,21.6596545 C22.2995661,21.6596545 22.3611482,21.6596545 22.3611482,21.6596545 Z M16.8187584,26.88762 C16.9419226,26.8246324 17.1266689,26.7616449 17.2498331,26.88762 C17.5577436,27.0765826 17.8656542,27.2655452 18.1735647,27.3285328 C18.2351469,27.3285328 18.296729,27.3915203 18.3583111,27.3915203 C19.2204606,27.6434705 20.0826102,27.4545078 20.8215955,26.88762 C20.9447597,26.7616449 21.129506,26.8246324 21.1910881,26.88762 C21.3142523,27.013595 21.2526702,27.1395701 21.1910881,27.2655452 C20.5136849,27.832433 19.7746996,28.0213956 19.1588785,28.0213956 C18.850968,28.0213956 18.6046395,27.9584081 18.296729,27.8954206 L17.9888184,27.7694455 C17.5577436,27.6434705 17.188251,27.4545078 16.8803404,27.2025577 C16.7571762,27.0765826 16.7571762,26.9506075 16.8187584,26.88762 Z M16.4492657,22.6674551 C16.5108478,23.2973304 16.0181909,23.8012307 15.4639519,23.8642182 C14.8481308,23.9272058 14.355474,23.4233055 14.2938918,22.8564177 C14.2323097,22.2265423 14.7249666,21.722642 15.2792056,21.6596545 C15.4023698,21.6596545 15.5871161,21.6596545 15.7102804,21.722642 C16.1413552,21.8486171 16.4492657,22.2265423 16.4492657,22.6674551 Z M13.3085781,20.084966 L14.2323098,20.084966 C14.8481309,20.084966 15.5255341,19.7070408 15.5255341,18.8882029 C15.5871162,18.7622278 15.7102804,18.6362527 15.8950267,18.6992403 C16.0181909,18.6992403 16.079773,18.8252153 16.079773,18.9511904 C16.079773,19.8960034 15.3407877,20.5888663 14.2938918,20.5888663 L13.3701602,20.5888663 C13.246996,20.6518539 13.0622497,20.5258788 13.0622497,20.3999037 C13.0006675,20.2739287 13.1238318,20.0849661 13.246996,20.084966 L13.3085781,20.084966 Z M12.692757,23.1713553 C13.1238318,23.1713553 13.5549065,23.2343429 13.9243992,23.3603179 C14.7249666,23.6122681 15.3407877,24.1791559 15.3407877,24.7460438 C15.3407877,25.6278693 14.1707276,26.3207322 12.7543391,26.3207322 C12.3232644,26.3207322 11.8921896,26.2577446 11.5226969,26.1317695 C10.7221295,25.8798194 10.1678905,25.3759191 10.1678905,24.7460438 C10.1678905,23.8642183 11.2763685,23.1713553 12.692757,23.1713553 Z M31.5368825,21.7856295 L32.2142857,16.4946764 L32.2142857,16.4316889 L32.2142857,16.4946764 L31.5368825,21.7856295 Z M7.58144194,29.7850467 L5.85714286,16.4946764 L5.85714286,16.3687014 L5.85714286,16.4946764 L7.58144194,29.7850467 Z M30.4784803,30.4149221 C30.4784803,30.4779096 30.4784803,30.4779096 30.3668224,30.5408971 C30.3668224,30.5408971 30.3668224,30.4779096 30.4784803,30.4149221 Z M28.9504339,31.5235161 L29.1967624,31.5235161 L28.9504339,31.5235161 Z" id="形状" fill="#FFFFFF" fill-rule="nonzero"></path>
                    <path d="M9.76190476,14.9829756 L31.2380952,14.9829756 L31.2380952,15.2831948 L9.76190476,15.2831948 L9.76190476,14.9829756 Z M13.8151576,20.6270975 L14.8435949,20.6270975 C15.8720322,20.6270975 16.5979879,19.9666152 16.5979879,19.0659574 C16.5979879,18.9458697 16.4769953,18.7657381 16.2955064,18.825782 C16.1745138,18.825782 16.0535211,18.9458697 16.0535211,19.0659574 C16.0535211,19.8465274 15.3880617,20.2067906 14.7830986,20.2067906 L13.8756539,20.2067906 C13.7546613,20.2067906 13.6336687,20.3268782 13.6336687,20.446966 C13.6336687,20.5070098 13.694165,20.5670537 13.8151576,20.6270975 Z M23.2525822,20.5070098 C23.4945674,20.5670537 23.6760564,20.6270975 23.9180416,20.6270975 L24.8254862,20.6270975 C24.9464789,20.5670537 25.0069752,20.446966 24.9464789,20.3268782 C24.8859826,20.2067906 24.8254863,20.1467467 24.7044936,20.1467467 L23.797049,20.1467467 C23.6760564,20.1467467 23.4945674,20.1467467 23.3735748,20.0867029 C22.9501006,19.9666152 22.5871227,19.6063521 22.5871228,19.0659574 C22.5871228,18.9458697 22.4661301,18.7657381 22.2846412,18.825782 C22.1636486,18.825782 22.0426559,18.9458697 22.042656,19.0659574 C22.1031523,19.7264397 22.5871228,20.3268782 23.2525822,20.5070098 Z M15.8720322,21.647843 C15.2670691,21.647843 14.7830986,22.1281938 14.7830986,22.7286323 C14.7830986,23.3290708 15.2670691,23.8094216 15.8720322,23.8094216 C16.4769953,23.8094216 16.9609658,23.3290708 16.9609658,22.7286323 C16.9609658,22.2482815 16.6584843,21.8880184 16.2350101,21.7078868 C16.1140175,21.647843 15.9930248,21.647843 15.8720322,21.647843 Z M22.4661301,23.5692462 C22.9501006,23.6893339 23.4945674,23.3891146 23.6760564,22.9087638 C23.797049,22.428413 23.4945674,21.8880184 23.0105969,21.7078868 C22.5266264,21.5877991 21.9821596,21.8880184 21.8006707,22.3683692 C21.8006707,22.428413 21.7401744,22.5485007 21.7401744,22.6085446 C21.8006707,23.0288515 22.1031522,23.4491585 22.4661301,23.5692462 Z M17.38444,27.231921 C17.3239436,27.231921 17.3239436,27.231921 17.38444,27.231921 C17.2634474,27.3520087 17.3239436,27.5321403 17.38444,27.5921842 C17.5054326,27.652228 17.6264252,27.652228 17.7474178,27.5321403 C18.0498994,27.3520087 18.352381,27.1718772 18.6548625,27.1118334 C18.7153588,27.1118334 18.7758551,27.0517895 18.8363514,27.0517895 C19.6832998,26.8716579 20.5302482,26.9917456 21.2562039,27.5321403 C21.3771965,27.5921842 21.4376928,27.5921842 21.5586854,27.5321403 C21.6796781,27.4720964 21.6796781,27.2919649 21.6191818,27.1718772 C20.9537224,26.6314825 20.2277666,26.451351 19.6228035,26.451351 C19.3203219,26.451351 19.0783367,26.5113948 18.7758551,26.5714387 C18.7153588,26.5714387 18.5943662,26.6314826 18.5338699,26.6314825 C18.0498994,26.8116141 17.6869215,26.9917456 17.38444,27.231921 Z" id="形状" fill="#A9B0B5" fill-rule="nonzero"></path>
                    <path d="M26.3571429,29.0006445 L30.7541017,27.6316242 C30.7541017,27.6316242 31.7384954,30.9172729 32.6572629,31.259528 C33.5760304,31.6702341 34.1666667,30.5750178 34.1666667,30.5750179 L29.5072029,32.6969993 C29.5072029,32.6969993 28.8509404,34.3398237 28.0634254,32.8339014 C27.4071628,31.7386851 26.3571429,29.0006445 26.3571429,29.0006445 Z" id="路径" fill="#FFFFFF"></path>
                    <path d="M35.1428571,31.5235161 L30.0714286,32.9522501 C30.0714286,32.9522501 29.7142857,33.5053084 29.2857143,33.4592202 C29.2857143,33.4592202 29.7142857,33.5513966 31,33.1826911 C32.2857143,32.8139855 34.0714286,32.2609272 34.0714286,32.2609272 C34.0714285,32.2609272 34.2857143,32.214839 34.6428572,31.9843981 C34.8571429,31.8000453 35.1428571,31.5235161 35.1428571,31.5235161 Z" id="路径" fill="#848484"></path>
                    <path d="M8.69782149,14.2802729 C8.63567187,14.2802729 8.57352229,14.2262188 8.57352225,14.2262188 L8.57352225,13.0910837 C8.57352225,13.0370296 8.63567187,13.0370296 8.63567187,13.0370296 L8.69782149,13.0370296 C8.75997111,13.0370296 8.75997111,13.0910837 8.75997107,13.0910837 L8.75997107,14.2262188 C8.82212069,14.2262188 8.75997107,14.2802729 8.69782149,14.2802729 Z M6.89674398,15.9559485 C6.83333333,15.9559485 6.83333333,15.9559485 6.83333333,15.9018945 L6.83333333,15.7397323 C6.83333333,15.6856783 6.83333333,15.6856783 6.89674398,15.6856783 C6.96015466,15.6856783 6.96015466,15.6856783 6.96015466,15.7397323 L6.89674398,15.9559485 C6.96015466,15.9559485 6.96015466,15.9559485 6.89674398,15.9559485 Z" id="形状" fill="#A9B0B5" fill-rule="nonzero"></path>
                </g>
            </g>
        </g>
    </g>
</svg>